<svg width="100" height="130" viewBox="0 0 100 130"
   xmlns="http://www.w3.org/2000/svg">
<!--                   1     2    3     4     5     6     7 -->
   <!-- <polygon points="47,0 53,0 53,60 60,60 50,84 40,60 47,60"/> down arrow -->
   <polygon points="50,0 60,20 53,20 53,80 47,80 47,20 40,20"/> <!-- up arrow -->
<!--<polygon points="10,80 14,80 14,90 86,90 86,80 90,80 90,94 10,94"/> -->
   <polygon points="10,78 16,78 16,84 84,84 84,78 90,78 90,90 10,90" fill="black"/>
   <text x="0" y="120" font-size="32" font-weight="bold" font-family="Arial">Export</text>
</svg>