<?xml version="1.0" encoding="UTF-8" standalone="no"?>
<!-- Uploaded to: SVG Repo, www.svgrepo.com, Generator: SVG Repo Mixer Tools -->

<svg
   viewBox="0 0 100 100"
   enable-background="new 0 0 32 32"
   id="Editable-line"
   version="1.1"
   xml:space="preserve"
   sodipodi:docname="gear.svg"
   width="100"
   height="100"
   inkscape:version="1.1.2 (0a00cf5339, 2022-02-04)"
   xmlns:inkscape="http://www.inkscape.org/namespaces/inkscape"
   xmlns:sodipodi="http://sodipodi.sourceforge.net/DTD/sodipodi-0.dtd"
   xmlns="http://www.w3.org/2000/svg"
   xmlns:svg="http://www.w3.org/2000/svg"><defs
   id="defs5901" /><sodipodi:namedview
   id="namedview5899"
   pagecolor="#ffffff"
   bordercolor="#000000"
   borderopacity="0.25"
   inkscape:pageshadow="2"
   inkscape:pageopacity="0.0"
   inkscape:pagecheckerboard="0"
   showgrid="false"
   inkscape:zoom="5.7063517"
   inkscape:cx="49.944345"
   inkscape:cy="50.031967"
   inkscape:window-width="1850"
   inkscape:window-height="1016"
   inkscape:window-x="0"
   inkscape:window-y="0"
   inkscape:window-maximized="1"
   inkscape:current-layer="Editable-line" />
<ellipse
   cx="50.945873"
   cy="51.474899"
   fill="none"
   id="XMLID_224_"
   stroke="#000000"
   stroke-linecap="round"
   stroke-linejoin="round"
   stroke-miterlimit="10"
   stroke-width="5.822"
   rx="11.468638"
   ry="11.822061" />
<path
   d="M 95.24729,30.125266 91.3971,23.988291 c -2.125309,-3.39093 -6.83409,-4.549585 -10.518717,-2.593688 l -2.025194,1.077156 C 71.152808,26.560713 61.527328,21.447747 61.527328,13.266304 v -2.154332 c 0,-3.9153297 -3.445916,-7.0865689 -7.700379,-7.0865689 h -7.700381 c -4.254463,0 -7.70038,3.1712392 -7.70038,7.0865689 v 2.154332 c 0,8.181443 -9.62548,13.297954 -17.32586,9.205455 L 19.075133,21.394603 C 15.3905,19.438706 10.681718,20.597361 8.5564133,23.988291 l -3.8501912,6.136975 c -2.1253044,3.39093 -0.8662922,7.724371 2.8183397,9.680269 l 2.0252007,1.077154 c 7.7003805,4.092499 7.7003805,14.31843 0,18.410931 l -2.0252007,1.077156 c -3.6846319,1.955896 -4.9436441,6.289327 -2.8183397,9.680256 l 3.8501912,6.136977 c 2.1253047,3.390929 6.8340867,4.549583 10.5187197,2.593687 l 2.025195,-1.077157 c 7.70038,-4.092489 17.32586,1.024013 17.32586,9.205466 v 2.15431 c 0,3.915342 3.445917,7.086581 7.70038,7.086581 h 7.700381 c 4.254463,0 7.700379,-3.171239 7.700379,-7.086581 v -2.15431 c 0,-8.181453 9.62548,-13.297965 17.325861,-9.205466 l 2.025194,1.077157 c 3.684627,1.955896 8.393408,0.797242 10.518717,-2.593676 l 3.85019,-6.136988 c 2.125308,-3.390919 0.866291,-7.72436 -2.818338,-9.680256 L 90.403748,59.29362 c -7.700379,-4.092501 -7.700379,-14.318432 0,-18.410931 l 2.025204,-1.077154 c 3.684629,-1.955898 4.947502,-6.289339 2.818338,-9.680269 z"
   fill="none"
   id="XMLID_242_"
   stroke="#000000"
   stroke-linecap="round"
   stroke-linejoin="round"
   stroke-miterlimit="10"
   stroke-width="7.3871" />
</svg>
