<?xml version="1.0" encoding="UTF-8" standalone="no"?>
<!-- Uploaded to: SVG Repo, www.svgrepo.com, Generator: SVG Repo Mixer Tools -->

<svg
   height="32"
   width="32"
   version="1.1"
   viewBox="0 0 20.48 20.48"
   enable-background="new 0 0 512 512"
   id="svg87"
   sodipodi:docname="eye-open.svg"
   inkscape:version="1.1.2 (0a00cf5339, 2022-02-04)"
   xmlns:inkscape="http://www.inkscape.org/namespaces/inkscape"
   xmlns:sodipodi="http://sodipodi.sourceforge.net/DTD/sodipodi-0.dtd"
   xmlns="http://www.w3.org/2000/svg"
   xmlns:svg="http://www.w3.org/2000/svg">
  <defs
     id="defs91" />
  <sodipodi:namedview
     id="namedview89"
     pagecolor="#ffffff"
     bordercolor="#666666"
     borderopacity="1.0"
     inkscape:pageshadow="2"
     inkscape:pageopacity="0.0"
     inkscape:pagecheckerboard="0"
     showgrid="false"
     fit-margin-left="0"
     inkscape:zoom="1.00875"
     inkscape:cx="400"
     inkscape:cy="126.39405"
     inkscape:window-width="1850"
     inkscape:window-height="1016"
     inkscape:window-x="0"
     inkscape:window-y="0"
     inkscape:window-maximized="1"
     inkscape:current-layer="svg87" />
  <g
     id="g85"
     transform="matrix(0.04203866,0,0,0.04748264,0.42026032,-1.0701052)">
    <g
       fill="#231f20"
       id="g83">
      <path
         d="m 34,256 26.2,26.2 c 108,108 283.7,108 391.7,0 L 478,256 451.8,229.8 c -108,-108 -283.7,-108 -391.7,0 z m 222,126.2 c -75.8,0 -151.6,-28.9 -209.3,-86.6 L 13.8,262.7 c -3.7,-3.7 -3.7,-9.7 0,-13.5 l 32.9,-32.9 c 115.4,-115.4 303.2,-115.4 418.6,0 l 32.9,32.9 c 3.7,3.7 3.7,9.7 0,13.5 l -32.9,32.9 C 407.6,353.3 331.8,382.2 256,382.2 Z"
         id="path79" />
      <path
         d="m 256,183.5 c -40,0 -72.5,32.5 -72.5,72.5 0,40 32.5,72.5 72.5,72.5 40,0 72.5,-32.5 72.5,-72.5 0,-40 -32.5,-72.5 -72.5,-72.5 z m 0,164 c -50.5,0 -91.5,-41.1 -91.5,-91.5 0,-50.5 41.1,-91.5 91.5,-91.5 50.4,0 91.5,41.1 91.5,91.5 0,50.5 -41,91.5 -91.5,91.5 z"
         id="path81" />
    </g>
  </g>
</svg>
