<svg class="svg-icon" style="width: 1em; height: 1em;vertical-align: middle;fill: currentColor;overflow: hidden;" viewBox="0 0 1024 1024" version="1.1" xmlns="http://www.w3.org/2000/svg"><path d="M512 512.597333m-85.333333 0a2 2 0 1 0 170.666667 0 2 2 0 1 0-170.666667 0ZM512 299.264c-261.333333 0-384 213.333333-384 213.333333s125.354667 213.333333 384 213.333333c261.333333 0 384-213.333333 384-213.333333S770.688 299.264 512 299.264zM512 683.264c-94.08 0-170.666667-76.544-170.666667-170.666667 0-94.08 76.586667-170.666667 170.666667-170.666667 94.122667 0 170.666667 76.586667 170.666667 170.666667C682.666667 606.72 606.122667 683.264 512 683.264z"  /></svg>