<?xml version="1.0" encoding="UTF-8" standalone="no"?>
<!-- Uploaded to: SVG Repo, www.svgrepo.com, Generator: SVG Repo Mixer Tools -->

<svg
   height="32"
   width="32"
   version="1.1"
   viewBox="0 0 20.48 20.48"
   enable-background="new 0 0 512 512"
   id="svg87"
   sodipodi:docname="eye-open.svg"
   inkscape:version="1.1.2 (0a00cf5339, 2022-02-04)"
   xmlns:inkscape="http://www.inkscape.org/namespaces/inkscape"
   xmlns:sodipodi="http://sodipodi.sourceforge.net/DTD/sodipodi-0.dtd"
   xmlns="http://www.w3.org/2000/svg"
   xmlns:svg="http://www.w3.org/2000/svg">
  <defs
     id="defs91">
    <rect
       x="7.0782218"
       y="12.456629"
       width="16.263476"
       height="7.1129182"
       id="rect94083" />
    <rect
       x="7.5907683"
       y="11.803439"
       width="15.609046"
       height="7.3821252"
       id="rect74755" />
  </defs>
  <sodipodi:namedview
     id="namedview89"
     pagecolor="#ffffff"
     bordercolor="#666666"
     borderopacity="1.0"
     inkscape:pageshadow="2"
     inkscape:pageopacity="0.0"
     inkscape:pagecheckerboard="0"
     showgrid="false"
     fit-margin-left="0"
     inkscape:zoom="20.3125"
     inkscape:cx="16"
     inkscape:cy="16.344615"
     inkscape:window-width="1551"
     inkscape:window-height="991"
     inkscape:window-x="26"
     inkscape:window-y="23"
     inkscape:window-maximized="0"
     inkscape:current-layer="svg87" />
  <g
     id="g85"
     transform="matrix(0.04137049,0,0,0.04516805,-0.34870968,-4.3283976)">
    <g
       fill="#231f20"
       id="g83">
      <path
         d="m 34,256 26.2,26.2 c 108,108 283.7,108 391.7,0 L 478,256 451.8,229.8 c -108,-108 -283.7,-108 -391.7,0 z m 222,126.2 c -75.8,0 -151.6,-28.9 -209.3,-86.6 L 13.8,262.7 c -3.7,-3.7 -3.7,-9.7 0,-13.5 l 32.9,-32.9 c 115.4,-115.4 303.2,-115.4 418.6,0 l 32.9,32.9 c 3.7,3.7 3.7,9.7 0,13.5 l -32.9,32.9 C 407.6,353.3 331.8,382.2 256,382.2 Z"
         id="path79" />
      <path
         d="m 256,183.5 c -40,0 -72.5,32.5 -72.5,72.5 0,40 32.5,72.5 72.5,72.5 40,0 72.5,-32.5 72.5,-72.5 0,-40 -32.5,-72.5 -72.5,-72.5 z m 0,164 c -50.5,0 -91.5,-41.1 -91.5,-91.5 0,-50.5 41.1,-91.5 91.5,-91.5 50.4,0 91.5,41.1 91.5,91.5 0,50.5 -41,91.5 -91.5,91.5 z"
         id="path81" />
    </g>
  </g>
  <g
     inkscape:groupmode="layer"
     id="layer1"
     inkscape:label="show" />
  <text
     xml:space="preserve"
     style="font-style:normal;font-weight:normal;font-size:3.41333333px;line-height:1.25;font-family:sans-serif;fill:#000000;fill-opacity:1;stroke:none;stroke-width:0.64"
     x="5.2132835"
     y="8.8620567"
     id="text9028"><tspan
       sodipodi:role="line"
       id="tspan9026"
       style="stroke-width:0.64;font-size:3.41333333px" /></text>
  <text
     xml:space="preserve"
     style="font-size:6.82667px;line-height:0.45;font-family:sans-serif;stroke-width:1.17826"
     x="2.4473999"
     y="21.93264"
     id="text48471"
     transform="matrix(1.1134666,-0.0021947,-0.00533492,0.8981066,0,0)"><tspan
       sodipodi:role="line"
       id="tspan48469"
       style="font-size:6.82667px;fill:#ff0000;stroke-width:1.17826"
       x="2.4473999"
       y="21.93264">hide</tspan></text>
  <text
     xml:space="preserve"
     transform="scale(0.64)"
     id="text74753"
     style="line-height:0.45;font-family:sans-serif;font-size:5.33333333px;white-space:pre;shape-inside:url(#rect74755)" />
  <text
     xml:space="preserve"
     transform="scale(0.64)"
     id="text94081"
     style="line-height:0.45;font-family:sans-serif;font-size:5.33333333px;white-space:pre;shape-inside:url(#rect94083);fill:#ff0000" />
</svg>
