<?xml version="1.0" encoding="UTF-8" standalone="no"?>
<svg
   width="32"
   height="32"
   fill="currentColor"
   class="bi bi-eye-slash"
   viewBox="0 0 32 32"
   version="1.1"
   id="svg318"
   sodipodi:docname="eye-crossed.svg"
   inkscape:version="1.1.2 (0a00cf5339, 2022-02-04)"
   xmlns:inkscape="http://www.inkscape.org/namespaces/inkscape"
   xmlns:sodipodi="http://sodipodi.sourceforge.net/DTD/sodipodi-0.dtd"
   xmlns="http://www.w3.org/2000/svg"
   xmlns:svg="http://www.w3.org/2000/svg">
  <defs
     id="defs322" />
  <sodipodi:namedview
     id="namedview320"
     pagecolor="#ffffff"
     bordercolor="#666666"
     borderopacity="1.0"
     inkscape:pageshadow="2"
     inkscape:pageopacity="0.0"
     inkscape:pagecheckerboard="0"
     showgrid="false"
     inkscape:zoom="12.21875"
     inkscape:cx="12.56266"
     inkscape:cy="25.902813"
     inkscape:window-width="1850"
     inkscape:window-height="1016"
     inkscape:window-x="0"
     inkscape:window-y="0"
     inkscape:window-maximized="1"
     inkscape:current-layer="svg318" />
  <path
     d="m 26.720002,22.624081 c 3.402255,-2.98336 5.282396,-6.363715 5.282396,-6.363715 0,0 -6.00045,-10.809274 -16.001199,-10.809274 a 14.057053,13.812287 0 0 0 -5.580418,1.1556098 l 1.540115,1.5152637 a 11.888891,11.681878 0 0 1 4.040303,-0.7055508 c 4.240318,0 7.758581,2.2954967 10.336774,4.8287983 a 26.269968,25.812547 0 0 1 3.320249,4.015153 c -0.116009,0.170984 -0.244018,0.359654 -0.390029,0.566014 -0.67005,0.943355 -1.660125,2.201161 -2.93022,3.44914 -0.330024,0.324279 -0.67405,0.644626 -1.034077,0.955147 z"
     id="path312"
     style="stroke-width:1.98266"
     inkscape:transform-center-x="-5.265058"
     inkscape:transform-center-y="-2.3493043" />
  <path
     d="M 22.595693,18.571586 A 7.0005245,6.8786291 0 0 0 13.647022,9.7787324 l 1.646124,1.6174606 a 5.0003746,4.9133064 0 0 1 5.658424,5.559897 z m -5.886441,2.552954 1.644123,1.615495 A 7.0005245,6.8786291 0 0 1 9.4047046,13.947182 l 1.6461234,1.61746 a 5.0003746,4.9133064 0 0 0 5.658424,5.559898 z"
     id="path314"
     style="stroke-width:1.98266"
     inkscape:transform-center-x="-0.053667488"
     inkscape:transform-center-y="-0.12750726" />
  <path
     d="m 6.700502,11.288101 c -0.360027,0.314451 -0.7060529,0.632833 -1.0360776,0.957112 a 26.269968,25.812547 0 0 0 -3.3202488,4.015153 l 0.3900293,0.566014 c 0.6700502,0.943355 1.6601243,2.201161 2.9302195,3.44914 2.5781932,2.533301 6.0984566,4.828797 10.3367746,4.828797 1.432107,0 2.780208,-0.261387 4.040303,-0.707515 l 1.540115,1.517229 A 14.059053,13.814252 0 0 1 16.001199,27.06964 C 6.0004496,27.06964 0,16.260366 0,16.260366 c 0,0 1.8781407,-3.38232 5.2823958,-6.3637141 L 6.6985019,11.290066 Z M 27.294045,28.748027 3.2922467,5.164155 4.7083528,3.7727067 28.710151,27.356577 Z"
     id="path316"
     style="stroke-width:1.98266"
     inkscape:transform-center-x="1.591456"
     inkscape:transform-center-y="-0.12652395" />
</svg>
