<?xml version="1.0" encoding="UTF-8" standalone="no"?>
<svg
   width="30.67462"
   height="33.325348"
   version="1.1"
   id="svg73"
   sodipodi:docname="help.32.svg"
   inkscape:version="1.1.2 (0a00cf5339, 2022-02-04)"
   xmlns:inkscape="http://www.inkscape.org/namespaces/inkscape"
   xmlns:sodipodi="http://sodipodi.sourceforge.net/DTD/sodipodi-0.dtd"
   xmlns="http://www.w3.org/2000/svg"
   xmlns:svg="http://www.w3.org/2000/svg">
  <defs
     id="defs77" />
  <sodipodi:namedview
     id="namedview75"
     pagecolor="#ffffff"
     bordercolor="#666666"
     borderopacity="1.0"
     inkscape:pageshadow="2"
     inkscape:pageopacity="0.0"
     inkscape:pagecheckerboard="0"
     showgrid="false"
     inkscape:zoom="80.7"
     inkscape:cx="28.519207"
     inkscape:cy="12.534077"
     inkscape:window-width="1850"
     inkscape:window-height="1016"
     inkscape:window-x="0"
     inkscape:window-y="0"
     inkscape:window-maximized="1"
     inkscape:current-layer="svg73"
     width="32px"
     fit-margin-top="0"
     fit-margin-left="0"
     fit-margin-right="0"
     fit-margin-bottom="0" />
  <g
     transform="matrix(3.3538588,0,0,3.7028319,-1.431419,-1.8509251)"
     id="g71">
    <path
       fill="#4ca3ff"
       stroke="#4ca3ff"
       stroke-linejoin="bevel"
       stroke-width="1.78492"
       d="M 114.25356,92.92701 A 11.253713,11.059683 0 0 1 102.99985,103.98669 11.253713,11.059683 0 0 1 91.746135,92.92701 11.253713,11.059683 0 0 1 102.99985,81.867327 11.253713,11.059683 0 0 1 114.25356,92.92701 Z"
       color="#000000"
       overflow="visible"
       style="isolation:auto;mix-blend-mode:normal;solid-color:#000000;solid-opacity:1"
       transform="matrix(0.3765,0,0,0.3765,-33.779611,-29.98717)"
       id="path67" />
    <path
       fill="#fbfbfb"
       fill-rule="evenodd"
       stroke="#ffffff"
       stroke-linecap="round"
       stroke-linejoin="round"
       stroke-width="0.1"
       d="M 4.9967424,2.5 C 4.6234091,2.5 4.3161262,2.6031075 4.0733493,2.8103299 3.8355712,3.0136632 3.66657,3.2448263 3.5687917,3.5026041 L 4.1710053,3.7467448 C 4.3198938,3.3134114 4.5956308,3.094618 4.9967424,3.094618 c 0.2427783,0 0.4309032,0.064305 0.5642364,0.1909723 0.1422218,0.1266667 0.2126733,0.2924392 0.2126733,0.5002169 0,0.1077788 -0.028526,0.2162065 -0.084635,0.3200954 C 5.6379021,4.2047906 5.5834264,4.2830295 5.5284263,4.3413629 5.4773113,4.3958079 5.3881397,4.4775433 5.2625844,4.593099 5.0386961,4.7914321 4.8821675,4.9661284 4.7938341,5.1150172 4.7049501,5.2594617 4.6603706,5.4330727 4.6603706,5.6358506 V 5.954861 H 5.3179232 V 5.6835936 c 0,-0.2483334 0.143073,-0.4960242 0.4275178,-0.7443576 L 5.77908,4.905598 C 5.9007531,4.7972653 5.9951129,4.7080637 6.0601131,4.6408416 6.1278951,4.5680636 6.2088541,4.4500169 6.2977439,4.2816835 6.3860769,4.1144614 6.4312069,3.9485846 6.4312069,3.7858069 6.4312069,3.4113624 6.2969272,3.1051125 6.030817,2.865668 5.7652578,2.6217795 5.4211873,2.5 4.9967424,2.5 Z m -0.00864,4.0787759 c -0.135,0 -0.2495486,0.045026 -0.3428819,0.1378037 -0.08834,0.088334 -0.1312882,0.195599 -0.1312882,0.3222656 0,0.1266668 0.042961,0.2332988 0.1312882,0.3255213 C 4.7385565,7.4543665 4.853105,7.5 4.988105,7.5 5.1236601,7.5 5.2366719,7.454369 5.3255604,7.3643665 5.4188944,7.2721435 5.4655352,7.1655119 5.4655352,7.0388452 5.4655352,6.9121786 5.4188952,6.804913 5.3255604,6.7165796 5.2366754,6.6238006 5.1236601,6.5787759 4.988105,6.5787759 Z"
       id="path69" />
  </g>
</svg>
